<svg xmlns="http://www.w3.org/2000/svg" fill="none" viewBox="0 0 1024 1024" height="1024" width="1024">
<g clip-path="url(#clip0_1511_110558)">
<ellipse fill="url(#paint0_linear_1511_110558)" ry="127.5" rx="467" cy="762.5" cx="506"></ellipse>
<path fill="url(#paint1_linear_1511_110558)" d="M230.457 615.502C230.457 615.502 230.233 614.922 229.928 615.542C227.184 621.122 202.334 681.566 200.362 728.218C200.362 728.218 196.215 755.02 230.965 754.665C259.973 754.37 259.2 729.662 259.099 721.337C258.702 687.573 230.457 615.502 230.457 615.502Z"></path>
<path fill="url(#paint2_linear_1511_110558)" d="M229.664 784.343C229.105 784.343 228.647 783.886 228.647 783.327V631.754C228.647 631.195 229.105 630.737 229.664 630.737C230.223 630.737 230.68 631.195 230.68 631.754V783.327C230.68 783.896 230.223 784.343 229.664 784.343Z"></path>
<path fill="url(#paint3_linear_1511_110558)" d="M869.35 810.661C876.541 808.4 883.517 805.446 889.874 797.176C891.178 795.482 892.404 793.311 891.689 791.283C891.151 789.757 889.594 788.778 888.013 788.529C887.424 788.442 886.827 788.426 886.234 788.48H886.228C885.316 788.574 884.415 788.754 883.536 789.015L883.285 789.089C879.09 790.299 875.093 792.13 871.425 794.524C871.093 794.738 870.698 794.833 870.306 794.792C869.914 794.75 869.548 794.576 869.266 794.296C868.984 794.017 868.804 793.649 868.754 793.252C868.704 792.855 868.789 792.453 868.993 792.111C869.367 791.491 869.803 790.911 870.292 790.38C871.015 789.613 871.807 788.916 872.657 788.299C873.788 787.462 874.994 786.715 876.174 785.951C880.562 783.116 884.719 779.929 888.605 776.42C891.378 773.913 894.091 771.131 895.409 767.607C896.015 765.986 896.291 764.117 895.568 762.547C894.376 759.968 890.999 759.245 888.237 759.78C883.398 760.721 879.532 764.32 876.104 767.908C873.261 770.889 870.075 774.189 865.99 774.372C865.294 774.439 864.594 774.296 863.977 773.963C862.812 773.247 862.512 771.588 862.927 770.271C863.343 768.953 864.304 767.901 865.231 766.89C870.623 761.021 875.928 754.916 879.429 747.725C882.93 740.534 884.481 732.044 882.048 724.409C881.335 722.177 880.263 720.005 878.591 718.383C876.919 716.762 874.575 715.745 872.28 716.056C869.153 716.473 866.798 719.15 865.213 721.915C859.768 731.401 860.101 743.025 858.567 753.891C858.138 756.933 857.514 760.053 855.728 762.557C855.563 762.798 855.35 763 855.101 763.15C853.632 764.013 852.313 762.272 851.761 760.795C849.583 754.95 849.038 748.265 845.139 743.427C843.65 741.585 841.544 740.046 839.197 740.061C836.331 740.081 833.877 742.51 833.04 745.292C832.204 748.074 832.705 751.096 833.601 753.858C835.264 758.98 838.245 763.582 841.759 767.627C843.61 769.763 845.705 771.92 846.261 774.706C846.431 775.653 846.36 776.628 846.054 777.539C845.748 778.45 845.218 779.267 844.513 779.912C844.184 780.202 843.801 780.423 843.386 780.561C842.971 780.699 842.533 780.75 842.098 780.713C841.157 780.626 840.306 780.139 839.484 779.666C839.139 779.467 838.794 779.265 838.447 779.067C837.077 778.276 835.707 777.483 834.336 776.69C830.851 774.674 826.646 772.614 823.018 774.35C821.167 775.238 819.954 776.983 819.383 778.986C818.872 780.804 818.872 782.73 819.383 784.548C820.464 788.328 827.276 798.848 830.086 801.561C833.368 804.729 844.748 818.398 869.35 810.661Z"></path>
<path fill="url(#paint4_linear_1511_110558)" d="M649.638 740.684C650.38 738.632 650.88 736.312 651.021 733.581C651.097 732.138 650.946 730.46 649.772 729.604C648.888 728.959 647.648 729.008 646.674 729.474C646.314 729.65 645.975 729.869 645.667 730.126L645.663 730.129C645.193 730.529 644.761 730.974 644.373 731.455L644.261 731.592C642.394 733.869 640.875 736.417 639.754 739.152C639.651 739.399 639.468 739.602 639.235 739.729C639.001 739.856 638.73 739.899 638.467 739.851C638.203 739.802 637.962 739.666 637.782 739.464C637.603 739.262 637.495 739.006 637.478 738.737C637.448 738.249 637.468 737.759 637.537 737.276C637.644 736.573 637.817 735.882 638.053 735.213C638.302 734.488 638.6 733.776 638.897 733.067C638.968 732.898 639.038 732.73 639.108 732.561C640.46 729.305 641.548 725.941 642.363 722.501C642.944 720.045 643.385 717.458 642.767 714.99C642.483 713.856 641.92 712.709 640.917 712.11C639.267 711.129 637.113 712.017 635.783 713.37C633.455 715.744 632.686 719.226 632.155 722.535C631.718 725.282 631.212 728.339 629.013 730.001C628.651 730.304 628.208 730.492 627.737 730.543C626.815 730.589 626.013 729.779 625.739 728.886C625.465 727.994 625.596 727.04 625.724 726.122C626.471 720.792 627.08 715.364 626.27 710.019C625.46 704.675 623.069 699.352 618.792 696.028C617.541 695.056 616.113 694.256 614.563 693.991C613.012 693.727 611.32 694.056 610.164 695.106C608.586 696.534 608.303 698.925 608.482 701.071C608.942 706.634 611.7 711.617 614.449 716.583C615.34 718.193 616.23 719.801 617.041 721.426C617.968 723.285 618.816 725.262 618.783 727.34C618.784 727.537 618.743 727.731 618.662 727.909C618.177 728.952 616.777 728.486 615.904 727.874C614.781 727.084 613.72 726.179 612.661 725.276C610.467 723.405 608.281 721.54 605.57 720.728C604.037 720.27 602.277 720.217 600.979 721.122C599.394 722.229 598.961 724.52 599.562 726.389C600.163 728.259 601.599 729.751 603.155 730.948C606.042 733.166 609.462 734.591 612.964 735.502C613.144 735.549 613.325 735.595 613.507 735.641C615.193 736.072 616.935 736.516 618.178 737.726C618.635 738.189 618.969 738.759 619.148 739.384C619.328 740.008 619.346 740.666 619.201 741.294C619.13 741.582 619.001 741.852 618.824 742.087C618.646 742.322 618.422 742.518 618.166 742.664C617.61 742.975 616.95 743.029 616.312 743.079C616.226 743.086 616.14 743.092 616.053 743.099C615.871 743.113 615.689 743.126 615.507 743.142C614.442 743.224 613.378 743.306 612.312 743.388C609.603 743.596 606.477 744.055 605.127 746.409C604.438 747.611 604.433 749.047 604.883 750.381C605.296 751.589 606.034 752.662 607.014 753.48C608.305 754.547 611.561 756.243 614.443 757.461C618.506 760.98 630.194 760.946 644.502 760.905C646.078 760.9 647.685 760.896 649.318 760.896C650.95 760.896 652.558 760.9 654.133 760.905C671.968 760.956 685.732 760.996 685.732 754.158C685.732 746.756 669.602 740.748 649.638 740.684Z" clip-rule="evenodd" fill-rule="evenodd"></path>
<rect fill="#6CB8FF" height="40" width="99" y="597" x="463"></rect>
<rect fill="#6CB8FF" rx="5" height="21" width="206" y="636" x="409"></rect>
<rect stroke-width="20" stroke="url(#paint5_linear_1511_110558)" fill="#E4F2FF" rx="20" height="321" width="540" y="271" x="242"></rect>
<path fill="#74BCFF" d="M426.115 356.584V490.732C426.115 494.7 429.232 497.91 433.081 497.91H567.441L553.077 483.546H440.042V370.511L426.115 356.584ZM476.007 406.476L464.952 418.08C461.842 421.342 461.842 426.633 464.952 429.887C468.061 433.157 473.104 433.157 476.21 429.887L487.533 418.002L476.007 406.476ZM588.013 483.546L602.377 497.91H614.15C617.995 497.91 621.115 494.7 621.115 490.732C621.115 486.765 617.995 483.546 614.15 483.546V483.546H588.013ZM504.579 400.112L493.051 388.585L509.113 371.725C509.2 371.608 509.267 371.481 509.335 371.354C509.425 371.185 509.514 371.017 509.648 370.872C512.834 367.532 517.994 367.532 521.176 370.872C521.229 370.929 521.264 370.996 521.298 371.063C521.331 371.125 521.363 371.188 521.411 371.243L560.178 411.938L598.483 371.725C598.572 371.607 598.642 371.478 598.712 371.35C598.802 371.183 598.893 371.016 599.025 370.873C602.204 367.533 607.368 367.533 610.553 370.873C613.732 374.216 613.732 379.631 610.553 382.97C610.136 383.408 609.675 383.786 609.198 384.109L565.583 429.887C562.477 433.157 557.439 433.157 554.325 429.887C554.07 429.622 553.9 429.309 553.731 428.996C553.643 428.833 553.555 428.67 553.454 428.514L515.489 388.661L504.579 400.112Z" clip-rule="evenodd" fill-rule="evenodd"></path>
<rect fill="#74BCFF" transform="matrix(-0.707107 0.707107 0.707107 0.707107 416.192 315.808)" rx="8.82356" height="268.642" width="17.6471"></rect>
<ellipse fill-opacity="0.1" fill="#7D7D7D" ry="15.5" rx="56.5" cy="770.5" cx="390.5"></ellipse>
<path fill="url(#paint6_linear_1511_110558)" d="M400.899 484.421H376.682V508.638H400.899V484.421Z"></path>
<path fill="#FEE0BC" d="M414.181 478.341C416.209 479.161 418.963 477.079 420.331 473.692C421.7 470.305 421.165 466.895 419.137 466.075C417.109 465.256 414.355 467.338 412.987 470.725C411.619 474.112 412.153 477.522 414.181 478.341Z"></path>
<path fill="#FEE0BC" d="M363.816 478.302C361.802 479.156 359.013 477.123 357.586 473.761C356.158 470.398 356.634 466.979 358.647 466.125C360.661 465.27 363.45 467.303 364.877 470.666C366.305 474.028 365.829 477.447 363.816 478.302Z"></path>
<path fill="url(#paint7_linear_1511_110558)" d="M389.766 494.577C404.543 494.577 416.522 482.773 416.522 468.211C416.522 453.65 404.543 441.846 389.766 441.846C374.989 441.846 363.01 453.65 363.01 468.211C363.01 482.773 374.989 494.577 389.766 494.577Z"></path>
<path fill="url(#paint8_linear_1511_110558)" d="M415.754 470.086C425.326 457.324 420.54 425.417 388.633 425.417C356.726 425.417 350.345 458.919 363.108 470.086C367.894 455.728 410.968 455.728 415.754 470.086Z"></path>
<path fill="#585449" d="M421.329 455.097C420.738 468.887 406.097 453.127 388.035 453.127C369.974 453.127 354.348 470.463 354.742 453.127C354.742 434.848 370.565 422 388.626 422C406.687 422 422.111 436.835 421.329 455.097Z"></path>
<path fill="#747169" d="M420.147 459.234C420.147 462.607 405.77 461.795 388.036 461.795C370.301 461.795 355.924 462.607 355.924 459.234C355.924 455.861 370.301 450.763 388.036 450.763C405.77 450.763 420.147 455.861 420.147 459.234Z"></path>
<rect fill="#FEE4C3" transform="rotate(10.2556 407.255 748.127)" height="13.5616" width="10.1712" y="748.127" x="407.255"></rect>
<path fill="#7B7B7B" d="M416.096 759.403C412.002 762.073 406.429 760.516 404.154 759.403C400.743 762.741 397.332 772.753 405.861 774.422C414.39 776.091 417.802 767.747 416.096 759.403Z"></path>
<rect fill="#FEE4C3" transform="matrix(-0.984023 0.17804 0.17804 0.984023 373.253 748.127)" height="13.5616" width="10.1712"></rect>
<path fill="#7B7B7B" d="M364.598 759.403C368.592 762.073 374.029 760.516 376.248 759.403C379.577 762.741 382.904 772.753 374.583 774.422C366.262 776.091 362.933 767.747 364.598 759.403Z"></path>
<path fill="#DCDCDC" d="M350.12 610.194C350.879 637.341 351.816 653.902 353.511 684.381C355.207 714.859 356.119 727.725 358.877 755.498L379.366 755.268L384.031 687.767C385.727 665.755 389.118 620.036 389.118 620.036C389.118 620.036 392.509 655.595 395.9 687.767C399.291 719.939 402.005 755.21 402.005 755.21L421.269 754.961C421.269 754.961 424.725 728.405 424.725 684.381C424.725 640.356 424.725 610.197 424.725 610.197L350.12 610.194Z"></path>
<path fill="url(#paint9_linear_1511_110558)" d="M490.618 521.824C488.923 521.825 482.828 519.277 479.827 524.614C476.825 529.951 474.521 536.049 478.353 538.204C482.184 540.359 489.312 537.176 492.313 531.839C504.204 524.934 503.326 513.345 490.618 521.824Z"></path>
<path fill="url(#paint10_linear_1511_110558)" d="M283.566 520.729C285.26 520.729 291.355 518.181 294.356 523.518C297.358 528.855 299.662 534.953 295.83 537.108C291.999 539.263 285.109 537.327 282.107 531.99C270.216 525.084 270.857 512.249 283.566 520.729Z"></path>
<path fill="url(#paint11_linear_1511_110558)" d="M400.772 498.109C400.247 498.715 399.719 499.265 399.19 499.761C397.404 501.311 394.86 502.75 391.946 503.585C385.522 504.632 379.772 499.943 377.04 496.397C376.759 496.397 375.587 496.886 373.815 498.183L373.753 498.112C371.978 498.784 370.302 499.75 368.728 500.936C359.408 504.948 342.367 518.549 328.104 550.641C326.349 546.253 320.048 542.318 312.968 537.897C306.375 533.78 299.105 529.24 294.2 523.518C287.42 527.587 283.464 530.864 282.334 531.994C293.07 548.946 316.081 577.764 326.409 577.764C336.307 577.764 343.893 573.719 348.83 567.991C347.19 588.245 345.215 609.494 343.239 614.479C340.774 620.7 384.704 621.267 410.551 618.75C423.358 618.604 432.47 617.464 431.286 614.476C429.306 609.478 427.325 588.134 425.683 567.834C430.616 573.645 438.25 577.764 448.238 577.764C458.566 577.764 481.577 548.946 492.313 531.994C491.183 530.864 487.227 527.587 480.447 523.518C475.542 529.24 468.272 533.78 461.679 537.897C454.599 542.318 448.298 546.253 446.543 550.641C432.141 518.237 414.906 504.685 405.649 500.821C404.391 499.888 403.068 499.096 401.682 498.482C401.221 498.152 400.98 498.114 400.782 498.112L400.772 498.109Z" clip-rule="evenodd" fill-rule="evenodd"></path>
<path fill="#FB955B" d="M404.024 499.854C404.024 499.854 402.331 498.218 400.638 498.218C391.521 507.032 381.194 500.907 376.942 496.582C376.782 496.413 375.249 496.581 373.557 498.218C388.452 511.308 400.074 504.763 404.024 499.854Z"></path>
<path fill="#6CB8FF" d="M415.899 218.441C417.389 218.441 417.639 218.342 418.509 217.848C417.639 203.911 432.5 206.5 439.385 214.882C443.154 209.842 454.751 209.545 457.361 209.249C458.521 217.848 450.402 220.22 450.692 220.516C450.924 220.753 455.718 223.451 457.361 224.242L462 221.87V229.283L456.781 226.911C455.911 227.701 453.5 230.135 450.692 231.499C428.077 239.208 426.047 224.074 425.178 222.295C424.482 220.872 422.761 220.516 421.988 220.516H413C413.097 219.923 414.259 218.441 415.899 218.441Z"></path>
<circle fill="#6CB8FF" r="5.5" cy="221.5" cx="485.5"></circle>
<circle fill="#6CB8FF" r="5.5" cy="221.5" cx="515.5"></circle>
<circle fill="#6CB8FF" r="5.5" cy="221.5" cx="545.5"></circle>
<circle fill="#6CB8FF" r="5.5" cy="221.5" cx="575.5"></circle>
<circle fill="#6CB8FF" r="5.5" cy="221.5" cx="605.5"></circle>
</g>
<defs>
<linearGradient gradientUnits="userSpaceOnUse" y2="890" x2="506" y1="635" x1="506" id="paint0_linear_1511_110558">
<stop stop-color="#BDDFFF"></stop>
<stop stop-opacity="0" stop-color="white" offset="0.95892"></stop>
</linearGradient>
<linearGradient gradientUnits="userSpaceOnUse" y2="615.257" x2="229.66" y1="754.678" x1="229.66" id="paint1_linear_1511_110558">
<stop stop-color="#5FB2FF"></stop>
<stop stop-color="#DFF0FF" offset="0.7893"></stop>
</linearGradient>
<linearGradient gradientUnits="userSpaceOnUse" y2="784.347" x2="229.661" y1="630.738" x1="229.661" id="paint2_linear_1511_110558">
<stop stop-color="#DFF0FF"></stop>
<stop stop-color="#A2D2FF" offset="0.818"></stop>
</linearGradient>
<linearGradient gradientUnits="userSpaceOnUse" y2="802.968" x2="847.534" y1="720.042" x1="883.842" id="paint3_linear_1511_110558">
<stop stop-color="#C4E3FF" offset="0.365159"></stop>
<stop stop-color="#5FB2FF" offset="1"></stop>
</linearGradient>
<linearGradient gradientUnits="userSpaceOnUse" y2="696.911" x2="605.494" y1="778.74" x1="649.318" id="paint4_linear_1511_110558">
<stop stop-color="#97CDFF" offset="0.568288"></stop>
<stop stop-color="#5FB2FF" offset="1"></stop>
</linearGradient>
<linearGradient gradientUnits="userSpaceOnUse" y2="606.115" x2="524.102" y1="278.423" x1="635.516" id="paint5_linear_1511_110558">
<stop stop-color="#6CB8FF"></stop>
<stop stop-color="#8FC8FF" offset="0.656831"></stop>
</linearGradient>
<linearGradient gradientUnits="userSpaceOnUse" y2="508.638" x2="388.79" y1="487.551" x1="388.79" id="paint6_linear_1511_110558">
<stop stop-color="#FFCDA5"></stop>
<stop stop-color="#FFE8D1" offset="1"></stop>
</linearGradient>
<linearGradient gradientUnits="userSpaceOnUse" y2="494.577" x2="389.766" y1="441.846" x1="389.766" id="paint7_linear_1511_110558">
<stop stop-color="#FFF2DF"></stop>
<stop stop-color="#FEE0BC" offset="1"></stop>
</linearGradient>
<linearGradient gradientUnits="userSpaceOnUse" y2="475.577" x2="373.074" y1="439.459" x1="408.391" id="paint8_linear_1511_110558">
<stop stop-color="#777CA7"></stop>
<stop stop-color="#636681" offset="1"></stop>
</linearGradient>
<linearGradient gradientUnits="userSpaceOnUse" y2="523.61" x2="480.391" y1="531.426" x1="494.288" id="paint9_linear_1511_110558">
<stop stop-color="#FEE4C3"></stop>
<stop stop-color="#FFD1AC" offset="1"></stop>
</linearGradient>
<linearGradient gradientUnits="userSpaceOnUse" y2="523.61" x2="295.304" y1="531.425" x1="281.407" id="paint10_linear_1511_110558">
<stop stop-color="#FEE4C3"></stop>
<stop stop-color="#FFD1AC" offset="1"></stop>
</linearGradient>
<linearGradient gradientUnits="userSpaceOnUse" y2="639.595" x2="431.53" y1="486.014" x1="458.663" id="paint11_linear_1511_110558">
<stop stop-color="#FFE194"></stop>
<stop stop-color="#FFBF84" offset="1"></stop>
</linearGradient>
<clipPath id="clip0_1511_110558">
<rect fill="white" height="1024" width="1024"></rect>
</clipPath>
</defs>
</svg>
